# xmcd
#
# Track frame offsets:
#	150
#	11395
#	32461
#	44478
#	57601
#	73304
#	92465
#	116319
#	131897
#	149931
#	166359
#	182756
#	196830
#
# Disc length: 2811 seconds
# Revision: 0
# Processed by: cddbd v1.5.2PL0 Copyright (c) Steve Scherf et al.
# Submitted via: dBpowerAMP V12.0
#
DISCID=bd0af90d
DTITLE=Quartette - Down at the Fair
DYEAR=2007
DGENRE=Country
TTITLE0=Down at the Fair
TTITLE1=Twenty Shades of Blue
TTITLE2=That's What You Always Say to My Heart
TTITLE3=Where Love Lies
TTITLE4=All These Things Are You
TTITLE5=Who's Foolin' Who
TTITLE6=Nothing Can Make the World Right Again
TTITLE7=Tell My Lord
TTITLE8=Sing a Song of Sadness
TTITLE9=My Invitation
TTITLE10=Marie Antoinette
TTITLE11=I Mean What I Say
TTITLE12=I Can't Wait
EXTD=
EXTT0=
EXTT1=
EXTT2=
EXTT3=
EXTT4=
EXTT5=
EXTT6=
EXTT7=
EXTT8=
EXTT9=
EXTT10=
EXTT11=
EXTT12=
PLAYORDER=
